<mxfile host="Electron" modified="2023-12-15T13:42:49.476Z" agent="Mozilla/5.0 (Windows NT 10.0; Win64; x64) AppleWebKit/537.36 (KHTML, like Gecko) draw.io/22.1.2 Chrome/114.0.5735.289 Electron/25.9.4 Safari/537.36" etag="02E2eTB6ftFN0BA0mJjy" version="22.1.2" type="device">
  <diagram name="Page-1" id="SfMkkOLPrtJzUpEJAOZI">
    <mxGraphModel dx="1036" dy="654" grid="1" gridSize="10" guides="1" tooltips="1" connect="1" arrows="1" fold="1" page="1" pageScale="1" pageWidth="850" pageHeight="1100" math="0" shadow="0">
      <root>
        <mxCell id="0" />
        <mxCell id="1" parent="0" />
        <mxCell id="qwzOf_Waw8MaXIW53zZW-24" value="" style="edgeStyle=orthogonalEdgeStyle;rounded=0;orthogonalLoop=1;jettySize=auto;html=1;" edge="1" parent="1" source="qwzOf_Waw8MaXIW53zZW-1" target="qwzOf_Waw8MaXIW53zZW-2">
          <mxGeometry relative="1" as="geometry" />
        </mxCell>
        <mxCell id="qwzOf_Waw8MaXIW53zZW-1" value="START" style="ellipse;whiteSpace=wrap;html=1;" vertex="1" parent="1">
          <mxGeometry x="365" y="40" width="120" height="80" as="geometry" />
        </mxCell>
        <mxCell id="qwzOf_Waw8MaXIW53zZW-25" value="" style="edgeStyle=orthogonalEdgeStyle;rounded=0;orthogonalLoop=1;jettySize=auto;html=1;" edge="1" parent="1" source="qwzOf_Waw8MaXIW53zZW-2" target="qwzOf_Waw8MaXIW53zZW-3">
          <mxGeometry relative="1" as="geometry" />
        </mxCell>
        <mxCell id="qwzOf_Waw8MaXIW53zZW-2" value="X, Y, Z" style="shape=parallelogram;perimeter=parallelogramPerimeter;whiteSpace=wrap;html=1;fixedSize=1;" vertex="1" parent="1">
          <mxGeometry x="365" y="160" width="120" height="60" as="geometry" />
        </mxCell>
        <mxCell id="qwzOf_Waw8MaXIW53zZW-5" value="FALSE" style="edgeStyle=orthogonalEdgeStyle;rounded=0;orthogonalLoop=1;jettySize=auto;html=1;" edge="1" parent="1" source="qwzOf_Waw8MaXIW53zZW-3" target="qwzOf_Waw8MaXIW53zZW-4">
          <mxGeometry relative="1" as="geometry" />
        </mxCell>
        <mxCell id="qwzOf_Waw8MaXIW53zZW-7" value="TRUE" style="edgeStyle=orthogonalEdgeStyle;rounded=0;orthogonalLoop=1;jettySize=auto;html=1;" edge="1" parent="1" source="qwzOf_Waw8MaXIW53zZW-3" target="qwzOf_Waw8MaXIW53zZW-6">
          <mxGeometry relative="1" as="geometry" />
        </mxCell>
        <mxCell id="qwzOf_Waw8MaXIW53zZW-3" value="X &amp;gt; Y" style="rhombus;whiteSpace=wrap;html=1;" vertex="1" parent="1">
          <mxGeometry x="375" y="280" width="100" height="90" as="geometry" />
        </mxCell>
        <mxCell id="qwzOf_Waw8MaXIW53zZW-15" style="edgeStyle=orthogonalEdgeStyle;rounded=0;orthogonalLoop=1;jettySize=auto;html=1;exitX=0.5;exitY=1;exitDx=0;exitDy=0;entryX=0;entryY=0.5;entryDx=0;entryDy=0;" edge="1" parent="1" source="qwzOf_Waw8MaXIW53zZW-4" target="qwzOf_Waw8MaXIW53zZW-11">
          <mxGeometry relative="1" as="geometry" />
        </mxCell>
        <mxCell id="qwzOf_Waw8MaXIW53zZW-19" value="FALSE" style="edgeLabel;html=1;align=center;verticalAlign=middle;resizable=0;points=[];" vertex="1" connectable="0" parent="qwzOf_Waw8MaXIW53zZW-15">
          <mxGeometry x="-0.5771" y="-2" relative="1" as="geometry">
            <mxPoint as="offset" />
          </mxGeometry>
        </mxCell>
        <mxCell id="qwzOf_Waw8MaXIW53zZW-17" value="" style="edgeStyle=orthogonalEdgeStyle;rounded=0;orthogonalLoop=1;jettySize=auto;html=1;" edge="1" parent="1" source="qwzOf_Waw8MaXIW53zZW-4" target="qwzOf_Waw8MaXIW53zZW-13">
          <mxGeometry relative="1" as="geometry" />
        </mxCell>
        <mxCell id="qwzOf_Waw8MaXIW53zZW-18" value="TRUE" style="edgeLabel;html=1;align=center;verticalAlign=middle;resizable=0;points=[];" vertex="1" connectable="0" parent="qwzOf_Waw8MaXIW53zZW-17">
          <mxGeometry x="0.2333" y="1" relative="1" as="geometry">
            <mxPoint as="offset" />
          </mxGeometry>
        </mxCell>
        <mxCell id="qwzOf_Waw8MaXIW53zZW-4" value="Y &amp;gt; Z" style="rhombus;whiteSpace=wrap;html=1;" vertex="1" parent="1">
          <mxGeometry x="200" y="280" width="100" height="90" as="geometry" />
        </mxCell>
        <mxCell id="qwzOf_Waw8MaXIW53zZW-10" value="TRUE" style="edgeStyle=orthogonalEdgeStyle;rounded=0;orthogonalLoop=1;jettySize=auto;html=1;" edge="1" parent="1" source="qwzOf_Waw8MaXIW53zZW-6" target="qwzOf_Waw8MaXIW53zZW-8">
          <mxGeometry relative="1" as="geometry" />
        </mxCell>
        <mxCell id="qwzOf_Waw8MaXIW53zZW-12" value="FALSE" style="edgeStyle=orthogonalEdgeStyle;rounded=0;orthogonalLoop=1;jettySize=auto;html=1;" edge="1" parent="1" source="qwzOf_Waw8MaXIW53zZW-6" target="qwzOf_Waw8MaXIW53zZW-11">
          <mxGeometry relative="1" as="geometry">
            <Array as="points">
              <mxPoint x="610" y="485" />
            </Array>
          </mxGeometry>
        </mxCell>
        <mxCell id="qwzOf_Waw8MaXIW53zZW-6" value="X &amp;gt; Z" style="rhombus;whiteSpace=wrap;html=1;" vertex="1" parent="1">
          <mxGeometry x="570" y="285" width="80" height="80" as="geometry" />
        </mxCell>
        <mxCell id="qwzOf_Waw8MaXIW53zZW-8" value="X" style="shape=document;whiteSpace=wrap;html=1;boundedLbl=1;" vertex="1" parent="1">
          <mxGeometry x="710" y="285" width="120" height="80" as="geometry" />
        </mxCell>
        <mxCell id="qwzOf_Waw8MaXIW53zZW-22" value="" style="edgeStyle=orthogonalEdgeStyle;rounded=0;orthogonalLoop=1;jettySize=auto;html=1;" edge="1" parent="1" source="qwzOf_Waw8MaXIW53zZW-11" target="qwzOf_Waw8MaXIW53zZW-20">
          <mxGeometry relative="1" as="geometry" />
        </mxCell>
        <mxCell id="qwzOf_Waw8MaXIW53zZW-11" value="Z" style="shape=document;whiteSpace=wrap;html=1;boundedLbl=1;" vertex="1" parent="1">
          <mxGeometry x="380" y="445" width="120" height="75" as="geometry" />
        </mxCell>
        <mxCell id="qwzOf_Waw8MaXIW53zZW-23" style="edgeStyle=orthogonalEdgeStyle;rounded=0;orthogonalLoop=1;jettySize=auto;html=1;entryX=0;entryY=0.5;entryDx=0;entryDy=0;" edge="1" parent="1" source="qwzOf_Waw8MaXIW53zZW-13" target="qwzOf_Waw8MaXIW53zZW-20">
          <mxGeometry relative="1" as="geometry">
            <Array as="points">
              <mxPoint x="70" y="640" />
            </Array>
          </mxGeometry>
        </mxCell>
        <mxCell id="qwzOf_Waw8MaXIW53zZW-13" value="Y" style="shape=document;whiteSpace=wrap;html=1;boundedLbl=1;size=0.3125;" vertex="1" parent="1">
          <mxGeometry x="10" y="285" width="120" height="80" as="geometry" />
        </mxCell>
        <mxCell id="qwzOf_Waw8MaXIW53zZW-20" value="END" style="ellipse;whiteSpace=wrap;html=1;" vertex="1" parent="1">
          <mxGeometry x="380" y="600" width="120" height="80" as="geometry" />
        </mxCell>
        <mxCell id="qwzOf_Waw8MaXIW53zZW-21" style="edgeStyle=orthogonalEdgeStyle;rounded=0;orthogonalLoop=1;jettySize=auto;html=1;entryX=1;entryY=0.625;entryDx=0;entryDy=0;entryPerimeter=0;" edge="1" parent="1" source="qwzOf_Waw8MaXIW53zZW-8" target="qwzOf_Waw8MaXIW53zZW-20">
          <mxGeometry relative="1" as="geometry">
            <Array as="points">
              <mxPoint x="770" y="650" />
            </Array>
          </mxGeometry>
        </mxCell>
      </root>
    </mxGraphModel>
  </diagram>
</mxfile>
